PathFileType	4	(X/Y/Z)
DataRate	CameraRate	NumFrames	NumMarkers	Units	OrigDataRate	OrigDataStartFrame	OrigNumFrames	
	120.0	120.0	4	39	mm	120.0	26	206
Frame#	Time	midhip	hip_r	hip_l	knee_r	knee_l	ankle_r	ankle_l	midasis	asis_r	asis_l	psis_r	psis_l	epicondLat_r	epicondLat_l	epicondMed_r	epicondMed_l	malleolusLat_r	malleolusLat_l	malleolusMedv_r	malleolusMedv_l	heel_r	heel_l	sternalnotch	xyphoidprocess	neck	subclavicle_r	subclavicle_l	toe_r	toe_l	thighwand_r	thighwand_l	upperleg1_r	upperleg1_l	upperleg2_r	upperleg2_l	shankwand_r	shankwand_l	lowerleg1_r	lowerleg1_l
	X1	Y1	Z1	X2	Y2	Z2	X3	Y3	Z3	X4	Y4	Z4	X5	Y5	Z5	X6	Y6	Z6	X7	Y7	Z7	X8	Y8	Z8	X9	Y9	Z9	X10	Y10	Z10	X11	Y11	Z11	X12	Y12	Z12	X13	Y13	Z13	X14	Y14	Z14	X15	Y15	Z15	X16	Y16	Z16	X17	Y17	Z17	X18	Y18	Z18	X19	Y19	Z19	X20	Y20	Z20	X21	Y21	Z21	X22	Y22	Z22	X23	Y23	Z23	X24	Y24	Z24	X25	Y25	Z25	X26	Y26	Z26	X27	Y27	Z27	X28	Y28	Z28	X29	Y29	Z29	X30	Y30	Z30	X31	Y31	Z31	X32	Y32	Z32	X33	Y33	Z33	X34	Y34	Z34	X35	Y35	Z35	X36	Y36	Z36	X37	Y37	Z37	X38	Y38	Z38	X39	Y39	Z39

	26	0.21667	1429.402	819.666	-269.730	1427.822	809.805	-195.921	1420.786	814.273	-347.820	1431.885	436.292	-160.058	1429.296	437.264	-388.684	1414.902	64.916	-126.327	1397.654	67.728	-422.938	1520.934	880.471	-271.223	1522.515	877.124	-153.404	1519.354	883.817	-389.042	1328.465	950.984	-233.468	1324.837	948.957	-288.129	1434.809	442.051	-100.407	1434.496	443.821	-448.098	1432.947	435.929	-218.603	1431.453	441.514	-323.674	1395.694	69.164	-89.219	1383.265	72.590	-462.096	1430.215	67.751	-156.302	1402.417	76.022	-394.286	1376.135	33.752	-157.550	1348.076	46.468	-412.328	1518.176	1321.077	-267.596	1560.751	1253.369	-272.406	1397.620	1380.975	-257.929	1524.360	1325.490	-216.015	1518.722	1323.458	-320.743	1508.400	40.694	-67.764	1501.056	43.721	-457.422	1590.772	576.308	-184.561	1467.205	581.695	-519.682	1524.336	630.651	-134.945	1407.295	627.548	-456.184	1511.129	544.067	-127.848	1413.306	539.546	-451.245	1382.879	151.870	-29.448	1494.734	186.685	-406.261	1391.073	157.113	-72.292	1453.750	187.233	-414.051
	27	0.22500	1429.212	819.537	-269.286	1427.811	809.789	-196.074	1420.925	814.397	-347.976	1431.867	436.269	-160.041	1429.282	437.393	-388.659	1414.913	64.920	-126.323	1397.643	67.754	-422.968	1520.964	880.572	-271.216	1522.427	877.116	-153.450	1519.500	884.028	-388.983	1328.360	951.030	-233.437	1324.833	948.920	-288.074	1434.784	442.055	-100.392	1434.489	443.920	-448.075	1432.927	435.893	-218.520	1432.103	441.585	-323.642	1395.700	69.167	-89.217	1383.261	72.620	-462.128	1430.174	67.777	-156.326	1403.025	75.729	-394.403	1376.133	33.740	-157.537	1348.069	46.484	-412.323	1518.076	1321.043	-267.619	1560.621	1253.319	-272.456	1397.520	1381.008	-257.792	1524.293	1325.454	-216.099	1518.592	1323.425	-320.710	1508.391	40.682	-67.717	1501.023	43.769	-457.430	1590.704	576.317	-184.528	1467.182	581.740	-519.644	1524.318	630.605	-134.963	1407.287	627.578	-456.168	1511.128	544.125	-127.832	1413.544	539.485	-451.210	1382.896	151.825	-29.443	1494.688	186.676	-406.314	1391.052	157.089	-72.268	1453.562	187.541	-413.616
	28	0.23333	1429.205	819.552	-268.909	1427.828	809.764	-196.218	1421.075	814.520	-348.121	1431.867	436.252	-160.028	1429.301	437.575	-388.600	1414.951	64.919	-126.323	1397.649	67.771	-422.980	1521.014	880.666	-271.206	1522.373	877.095	-153.482	1519.654	884.238	-388.930	1328.277	951.079	-233.411	1324.825	948.885	-288.024	1434.769	442.062	-100.381	1434.501	444.070	-448.020	1432.969	435.767	-218.491	1432.648	441.610	-323.626	1395.730	69.163	-89.221	1383.267	72.643	-462.139	1430.051	67.861	-156.413	1403.698	75.566	-394.465	1376.131	33.717	-157.531	1348.023	46.494	-412.289	1518.057	1320.870	-267.600	1560.534	1253.093	-272.305	1397.468	1381.016	-257.820	1524.320	1325.400	-216.052	1518.532	1323.121	-320.740	1508.409	40.668	-67.663	1500.981	43.822	-457.439	1590.639	576.321	-184.485	1467.152	581.765	-519.626	1524.308	630.544	-135.029	1407.295	627.548	-456.184	1511.129	544.067	-127.848	1413.748	539.393	-451.202	1382.925	151.780	-29.434	1494.680	186.673	-406.367	1390.962	157.055	-72.221	1453.283	188.160	-413.068
	29	0.24167	1429.297	819.654	-268.602	1427.855	809.736	-196.330	1421.211	814.629	-348.234	1431.898	436.242	-160.035	1429.334	437.734	-388.541	1415.021	64.904	-126.323	1397.651	67.777	-422.972	1521.067	880.744	-271.186	1522.342	877.066	-153.491	1519.791	884.422	-388.881	1328.197	951.126	-233.383	1324.813	948.860	-288.003	1434.767	442.069	-100.388	1434.520	444.201	-447.966	1432.969	435.731	-218.447	1432.495	441.610	-323.622	1395.780	69.146	-89.232	1383.265	72.653	-462.129	1429.903	67.952	-156.521	1403.811	75.719	-394.415	1376.125	33.684	-157.527	1347.863	46.573	-412.223	1518.111	1320.758	-267.516	1560.546	1252.950	-272.154	1397.445	1381.038	-257.877	1524.390	1325.344	-215.984	1518.575	1322.948	-320.650	1508.445	40.652	-67.604	1500.939	43.872	-457.449	1590.583	576.327	-184.438	1467.117	581.760	-519.624	1524.361	630.598	-135.165	1407.303	627.518	-456.200	1511.125	544.063	-127.884	1413.682	539.430	-451.212	1382.956	151.728	-29.420	1494.705	186.671	-406.397	1390.847	157.059	-72.202	1453.087	188.617	-412.914
